<svg width="64" height="76" viewBox="0 0 64 76" fill="none" xmlns="http://www.w3.org/2000/svg">
<path d="M27.2668 75.3012C38.2197 75.3012 44.1069 62.0208 36.5768 54.2168L20.0105 37.6506L3.44426 54.2168C-4.22278 62.0208 1.80134 75.3012 12.7542 75.3012H27.2668Z" fill="#F8F8F8"/>
<path d="M12.6936 0C1.74071 0 -4.1465 13.2804 3.38362 21.0844L19.9499 37.6506L36.5162 21.0844C44.1832 13.2804 38.1591 0 27.2062 0H12.6936Z" fill="#F8F8F8"/>
<path d="M63.4537 30.364C63.4537 19.4111 50.1733 13.5239 42.3693 21.054L25.8031 37.6203L42.3693 54.1866C50.1733 61.8536 63.4537 55.8295 63.4537 44.8766V30.364Z" fill="#BFBDB6"/>
<path d="M27.2668 75.3012C38.2197 75.3012 44.1069 62.0208 36.5768 54.2168L20.0105 37.6506L3.44426 54.2168C-4.22278 62.0208 1.80134 75.3012 12.7542 75.3012H27.2668Z" fill="#E6B450"/>
<path d="M12.6936 0C1.74071 0 -4.1465 13.2804 3.38362 21.0844L19.9499 37.6506L36.5162 21.0844C44.1832 13.2804 38.1591 0 27.2062 0H12.6936Z" fill="#E6B450"/>
<path d="M63.4537 30.364C63.4537 19.4111 50.1733 13.5239 42.3693 21.054L25.8031 37.6203L42.3693 54.1866C50.1733 61.8536 63.4537 55.8295 63.4537 44.8766V30.364Z" fill="#F07178"/>
</svg>
