<svg width="188" height="48" viewBox="0 0 188 48" fill="none" xmlns="http://www.w3.org/2000/svg" class="">
<g clip-path="url(#clip0_290_14087)">
<path d="M70.9903 39.9602C68.8955 39.9602 66.967 39.5612 65.105 38.73C63.2762 37.8987 61.6802 36.7682 60.2836 35.3052C58.8871 33.8421 57.8231 32.1464 57.0251 30.2178C56.2271 28.2893 55.8613 26.2278 55.8613 24.0333C55.8613 21.8387 56.2603 19.7772 57.0251 17.8487C57.8231 15.9201 58.8871 14.2244 60.2836 12.7614C61.6802 11.2983 63.2762 10.1678 65.105 9.33656C66.9337 8.5053 68.8955 8.10629 70.9903 8.10629C73.0851 8.10629 75.7783 8.67155 77.8731 9.83532C79.9679 10.9991 81.6969 12.5286 83.0934 14.4571L79.0369 16.6184C78.0726 15.4214 76.9089 14.4571 75.5123 13.7256C74.1158 12.9941 72.6196 12.6616 71.0235 12.6616C69.4275 12.6616 68.1972 12.9609 66.9005 13.5594C65.637 14.1579 64.5064 14.9891 63.5422 16.0199C62.5779 17.0507 61.8132 18.2809 61.2812 19.6442C60.7491 21.0075 60.4831 22.5037 60.4831 24.0333C60.4831 25.5628 60.7491 27.0591 61.2812 28.4556C61.8132 29.8188 62.5779 31.0491 63.5422 32.0799C64.5064 33.1439 65.637 33.9419 66.9005 34.5404C68.164 35.1389 69.5273 35.4382 70.9903 35.4382C72.4533 35.4382 74.1158 35.0724 75.5123 34.3409C76.9089 33.6094 78.0726 32.6451 79.0036 31.4481L83.0602 33.6759C81.6969 35.6044 79.9347 37.1339 77.8399 38.2977C75.7451 39.4615 73.4508 40.0267 70.957 40.0267L70.9903 39.9602Z" fill="#112C2D"></path>
<path d="M103.509 16.7514H108.097V39.9602H103.509L103.342 36.2029C102.711 37.3334 101.813 38.2312 100.716 38.9295C99.6183 39.6277 98.3216 39.9602 96.8253 39.9602C95.329 39.9602 93.6998 39.661 92.27 39.0625C90.8402 38.4639 89.61 37.5994 88.5127 36.5354C87.4487 35.4382 86.5842 34.2079 85.9857 32.7781C85.3871 31.3484 85.0879 29.8521 85.0879 28.2228C85.0879 26.5935 85.3871 25.1638 85.9524 23.8005C86.5509 22.404 87.3489 21.207 88.3797 20.1762C89.4104 19.1454 90.6407 18.3142 92.004 17.7157C93.3673 17.1172 94.8303 16.8179 96.4263 16.8179C98.0223 16.8179 99.4188 17.1837 100.649 17.9152C101.879 18.6467 102.877 19.5777 103.708 20.7082L103.509 16.8179V16.7514ZM96.6923 35.5379C97.9891 35.5379 99.1196 35.2054 100.084 34.5736C101.048 33.9419 101.813 33.0774 102.345 31.9801C102.877 30.8828 103.143 29.6858 103.143 28.3891C103.143 27.0923 102.877 25.862 102.345 24.7648C101.813 23.6675 101.048 22.803 100.084 22.1712C99.1196 21.5395 97.9891 21.207 96.7255 21.207C95.462 21.207 94.2983 21.5395 93.2343 22.1712C92.1702 22.803 91.339 23.6675 90.7405 24.7648C90.1087 25.862 89.8095 27.059 89.8095 28.3558C89.8095 29.6526 90.142 30.8828 90.7737 31.9801C91.4055 33.0441 92.27 33.9086 93.3008 34.5404C94.3648 35.1722 95.4953 35.5047 96.7255 35.5047L96.6923 35.5379Z" fill="#112C2D"></path>
<path d="M126.452 33.1439L130.542 35.3717C129.544 36.7682 128.281 37.8654 126.751 38.6967C125.222 39.528 123.559 39.9602 121.764 39.9602C119.968 39.9602 117.907 39.4282 116.244 38.3974C114.582 37.3667 113.252 35.9702 112.254 34.2079C111.257 32.4456 110.758 30.5171 110.758 28.3891C110.758 26.261 111.057 25.2635 111.622 23.867C112.188 22.4705 112.986 21.2402 113.983 20.1762C114.981 19.1122 116.144 18.2809 117.474 17.6824C118.804 17.0839 120.234 16.7847 121.73 16.7847C123.227 16.7847 125.189 17.2169 126.718 18.0482C128.248 18.8794 129.511 20.0099 130.509 21.4065L126.419 23.6342C125.787 22.9027 125.089 22.3375 124.257 21.9385C123.426 21.5395 122.595 21.34 121.73 21.34C120.866 21.34 119.436 21.6725 118.472 22.3042C117.508 22.9692 116.743 23.8005 116.178 24.8645C115.612 25.9285 115.346 27.0923 115.346 28.3558C115.346 29.6193 115.646 30.7498 116.211 31.8139C116.776 32.8779 117.541 33.7424 118.538 34.3741C119.503 35.0059 120.6 35.3384 121.797 35.3384C122.994 35.3384 123.559 35.1389 124.39 34.7066C125.222 34.3076 125.92 33.7424 126.485 33.0774L126.452 33.1439Z" fill="#112C2D"></path>
<path d="M145.903 21.3732H141.281V39.9602H136.692V21.3732H133.234V16.7847H136.726V10.5003H141.281V16.7847H145.936V21.3732H145.903Z" fill="#112C2D"></path>
<path d="M148.596 31.1488V16.7514H153.184V30.0183C153.184 31.0158 153.417 31.8804 153.916 32.7116C154.415 33.5096 155.046 34.1746 155.844 34.6401C156.642 35.1057 157.54 35.3384 158.504 35.3384C159.469 35.3384 160.366 35.1057 161.164 34.6401C161.962 34.1746 162.594 33.5096 163.093 32.7116C163.558 31.9136 163.791 31.0158 163.791 30.0183V16.7514H168.38V39.9602H163.824V37.0009C163.06 37.8987 162.129 38.6302 160.998 39.1622C159.868 39.6942 158.704 39.9602 157.407 39.9602C156.11 39.9602 154.315 39.5612 152.952 38.7632C151.622 37.9652 150.558 36.9012 149.76 35.5712C148.962 34.2411 148.562 32.7449 148.562 31.1156L148.596 31.1488Z" fill="#112C2D"></path>
<path d="M178.687 39.8937C177.524 39.8272 176.393 39.5945 175.296 39.1955C174.199 38.7964 173.234 38.2644 172.403 37.5662C171.572 36.9012 170.94 36.0699 170.541 35.1722L174.431 33.5096C174.631 33.9086 174.963 34.3076 175.429 34.6734C175.894 35.0391 176.46 35.3717 177.125 35.6044C177.756 35.8372 178.455 35.9702 179.153 35.9702C179.851 35.9702 180.483 35.8704 181.081 35.6709C181.68 35.4714 182.145 35.1722 182.544 34.7731C182.91 34.3741 183.11 33.8754 183.11 33.3101C183.11 32.7449 182.877 32.1796 182.445 31.8139C182.012 31.4481 181.48 31.1821 180.815 30.9826C180.184 30.7831 179.519 30.6168 178.887 30.4173C177.457 30.0848 176.127 29.6526 174.93 29.0873C173.733 28.5221 172.802 27.7906 172.071 26.926C171.372 26.0283 171.007 24.9643 171.007 23.6675C171.007 22.3707 171.372 21.0407 172.137 20.0099C172.902 18.9792 173.899 18.1812 175.13 17.6159C176.36 17.0507 177.69 16.7847 179.086 16.7847C180.483 16.7847 182.445 17.1504 183.908 17.9152C185.371 18.6467 186.501 19.6774 187.266 21.0075L183.642 23.1687C183.409 22.7365 183.076 22.3375 182.644 21.9717C182.212 21.606 181.713 21.34 181.148 21.1405C180.583 20.941 180.017 20.808 179.419 20.7747C178.687 20.7747 177.989 20.8412 177.357 21.0407C176.726 21.2402 176.227 21.5395 175.828 21.9717C175.462 22.404 175.263 22.936 175.263 23.601C175.263 24.266 175.495 24.7315 175.928 25.0308C176.393 25.33 176.958 25.596 177.657 25.7955C178.355 25.995 179.053 26.1945 179.785 26.4273C181.081 26.8263 182.312 27.325 183.442 27.9236C184.573 28.5221 185.504 29.2536 186.202 30.1181C186.9 30.9826 187.233 32.0466 187.199 33.2769C187.199 34.6401 186.8 35.8704 185.969 36.9012C185.138 37.9319 184.074 38.73 182.744 39.262C181.414 39.794 180.017 40.0267 178.554 39.927L178.687 39.8937Z" fill="#112C2D"></path>
<path d="M39.9005 0.0596771H7.98011C3.57282 0.0596771 0 3.63249 0 8.03978V39.9602C0 44.3675 3.57282 47.9403 7.98011 47.9403H39.9005C44.3078 47.9403 47.8806 44.3675 47.8806 39.9602V8.03978C47.8806 3.63249 44.3078 0.0596771 39.9005 0.0596771Z" fill="#112C2D"></path>
<path d="M19.9508 27.9901C19.9508 25.7864 18.1644 24 15.9608 24C13.7571 24 11.9707 25.7864 11.9707 27.9901C11.9707 30.1937 13.7571 31.9801 15.9608 31.9801C18.1644 31.9801 19.9508 30.1937 19.9508 27.9901Z" fill="#72C978"></path>
<path d="M35.9117 20.0099C35.9117 17.8063 34.1253 16.0199 31.9217 16.0199C29.718 16.0199 27.9316 17.8063 27.9316 20.0099C27.9316 22.2136 29.718 24 31.9217 24C34.1253 24 35.9117 22.2136 35.9117 20.0099Z" fill="#E2874A"></path>
<path d="M19.9512 16.0199H27.9313V20.0099C27.9313 22.2045 26.1358 24 23.9412 24C21.7467 24 19.9512 22.2045 19.9512 20.0099V16.0199Z" fill="#AF9AE6"></path>
<path d="M19.9512 8.03978H23.9412C26.1358 8.03978 27.9313 9.8353 27.9313 12.0298V16.0199H19.9512V8.03978Z" fill="#AF9AE6"></path>
<path d="M19.9512 31.9801H27.9313V39.9602H23.9412C21.7467 39.9602 19.9512 38.1647 19.9512 35.9702V31.9801Z" fill="#FF7967"></path>
<path d="M23.9412 24C26.1358 24 27.9313 25.7955 27.9313 27.9901V31.9801H19.9512V27.9901C19.9512 25.7955 21.7467 24 23.9412 24Z" fill="#FF7967"></path>
</g>
<defs>
<clipPath id="clip0_290_14087">
<rect width="187.2" height="47.8806" fill="white" transform="translate(0 0.0596771)"></rect>
</clipPath>
</defs>
</svg>
