<svg width="235" height="35" viewBox="0 0 235 35" fill="none" xmlns="http://www.w3.org/2000/svg">
<path d="M82.27 12.0469L77.6756 30.2724H74.1909L72.5319 23.6839L70.8529 15.5345H70.4082L68.7514 23.6839L67.0947 30.2724H63.5944L59 12.0469H61.8576L64.0636 20.7729L65.3735 27.2043L66.6811 20.7729L68.856 12.0516H72.4141L74.5867 20.7729L75.921 27.2301L77.2308 20.7729L79.4035 12.0516L82.27 12.0469Z" fill="white"/>
<path d="M96.7715 21.2415V30.2769H93.9784V21.8392C93.9784 19.6266 93.04 18.4547 90.9896 18.4547C88.619 18.4547 87.3336 20.0954 87.3336 22.8564V30.2769H84.5405V10.2256H87.3314V18.2977C88.2943 16.6312 89.7776 15.6421 91.8769 15.6421C94.9169 15.6398 96.7715 17.7469 96.7715 21.2415Z" fill="white"/>
<path d="M101.366 11.2897C101.366 12.3585 100.599 13.139 99.5379 13.139C99.303 13.1479 99.0687 13.1065 98.8493 13.0174C98.6299 12.9282 98.4299 12.7932 98.2614 12.6204C98.0929 12.4476 97.9593 12.2406 97.8687 12.0119C97.7782 11.7832 97.7325 11.5376 97.7344 11.2897C97.7344 10.2491 98.5239 9.49438 99.5379 9.49438C100.599 9.49438 101.366 10.2491 101.366 11.2897ZM98.1547 15.9516H100.946V30.2723H98.1547V15.9516Z" fill="white"/>
<path d="M114.26 29.5434C113.065 30.2135 111.735 30.5704 110.381 30.5841C107.59 30.5841 105.416 28.7348 105.416 24.7785V18.7103H102.896V15.9517H105.416V12.6961L108.209 12.0469V15.9517H113.79V18.7103H108.209V24.6214C108.209 26.7051 109.123 27.8512 110.877 27.8512C111.742 27.8512 112.705 27.5371 113.768 27.1481L114.26 29.5434Z" fill="white"/>
<path d="M129.355 23.9184H118.311C118.534 26.5481 120.288 28.006 122.561 28.006C124.191 28.006 125.55 27.2771 126.193 25.8708H129.084C128.021 29.0748 125.425 30.5842 122.537 30.5842C118.412 30.5842 115.472 27.4599 115.472 23.1379C115.472 18.8159 118.387 15.6377 122.488 15.6377C126.86 15.64 129.626 19.205 129.355 23.9184ZM118.458 21.523H126.364C125.944 19.5706 124.536 18.1901 122.486 18.1901C120.362 18.1948 118.93 19.6011 118.46 21.523H118.458Z" fill="white"/>
<path d="M139.952 15.7172V18.7103C139.672 18.6762 139.392 18.659 139.111 18.6587C136.567 18.6587 134.617 20.1681 134.617 23.7096V30.2723H131.823V15.9516H134.617V18.7899C135.431 16.7836 136.987 15.6399 139.138 15.6399C139.411 15.6326 139.684 15.6586 139.952 15.7172Z" fill="white"/>
<path d="M155.193 15.9517V30.2724H152.402V27.877C151.903 28.7242 151.203 29.4195 150.372 29.8943C149.54 30.369 148.605 30.6068 147.659 30.5841C144.027 30.5841 141.383 27.4856 141.383 23.1121C141.383 18.7385 144.076 15.64 147.634 15.64C148.588 15.6231 149.53 15.8686 150.366 16.3524C151.202 16.8362 151.904 17.5415 152.402 18.3986V15.9517H155.193ZM152.427 23.1167C152.427 20.3815 150.623 18.4549 148.253 18.4549C145.882 18.4549 144.201 20.3815 144.201 23.1167C144.201 25.852 145.904 27.7762 148.253 27.7762C150.601 27.7762 152.427 25.8707 152.427 23.1167Z" fill="white"/>
<path d="M171.029 23.1166C171.029 27.4901 168.385 30.5886 164.754 30.5886C163.809 30.606 162.876 30.3659 162.045 29.8916C161.213 29.4174 160.513 28.725 160.01 27.8815V30.2769H157.219V10.2256H160.01V18.4008C160.508 17.5435 161.21 16.8381 162.047 16.3543C162.883 15.8704 163.824 15.625 164.778 15.6421C168.336 15.6398 171.029 18.7383 171.029 23.1166ZM168.212 23.1166C168.212 20.3813 166.533 18.4547 164.16 18.4547C161.787 18.4547 159.986 20.3813 159.986 23.1166C159.986 25.8518 161.789 27.7761 164.16 27.7761C166.53 27.7761 168.212 25.8705 168.212 23.1166Z" fill="white"/>
<path d="M186.912 23.1166C186.912 27.4901 184.27 30.5886 180.638 30.5886C179.693 30.6062 178.76 30.3662 177.929 29.892C177.098 29.4177 176.397 28.7252 175.895 27.8815V30.2769H173.102V10.2256H175.895V18.4008C176.393 17.5433 177.095 16.8378 177.931 16.354C178.767 15.8701 179.709 15.6248 180.663 15.6421C184.219 15.6398 186.912 18.7383 186.912 23.1166ZM184.096 23.1166C184.096 20.3813 182.415 18.4547 180.045 18.4547C177.674 18.4547 175.87 20.3813 175.87 23.1166C175.87 25.8518 177.674 27.7761 180.045 27.7761C182.415 27.7761 184.096 25.8705 184.096 23.1166Z" fill="white"/>
<path d="M192.691 11.2897C192.691 12.3585 191.926 13.139 190.863 13.139C190.628 13.1479 190.394 13.1065 190.175 13.0174C189.955 12.9282 189.755 12.7932 189.587 12.6204C189.418 12.4476 189.285 12.2406 189.194 12.0119C189.104 11.7832 189.058 11.5376 189.06 11.2897C189.06 10.2491 189.852 9.49438 190.863 9.49438C191.926 9.49438 192.691 10.2491 192.691 11.2897ZM189.48 15.9516H192.273V30.2723H189.48V15.9516Z" fill="white"/>
<path d="M205.587 29.5434C204.393 30.2135 203.062 30.5704 201.709 30.5841C198.918 30.5841 196.743 28.7348 196.743 24.7785V18.7103H194.224V15.9517H196.743V12.6961L199.534 12.0469V15.9517H205.118V18.7103H199.534V24.6214C199.534 26.7051 200.448 27.8512 202.203 27.8512C203.068 27.8512 204.031 27.5371 205.094 27.1481L205.587 29.5434Z" fill="white"/>
<path d="M211.912 28.7416C211.913 28.9913 211.866 29.2388 211.773 29.4688C211.681 29.6988 211.545 29.9066 211.374 30.0796C211.203 30.2525 211.001 30.3871 210.779 30.475C210.557 30.5628 210.321 30.6023 210.084 30.5908C209.848 30.6021 209.613 30.5623 209.393 30.474C209.172 30.3858 208.971 30.2508 208.802 30.0775C208.633 29.9042 208.5 29.6963 208.41 29.4665C208.32 29.2367 208.276 28.99 208.28 28.7416C208.28 27.6751 209.045 26.9204 210.084 26.9204C211.122 26.9204 211.912 27.6681 211.912 28.7416Z" fill="white"/>
<path d="M228.659 15.9517V30.2724H225.868V27.877C225.37 28.7244 224.67 29.4198 223.838 29.8946C223.006 30.3694 222.071 30.6071 221.125 30.5842C217.493 30.5842 214.852 27.4856 214.852 23.1121C214.852 18.7385 217.542 15.64 221.1 15.64C222.054 15.6229 222.996 15.8683 223.832 16.3521C224.668 16.8359 225.37 17.5414 225.868 18.3987V15.9517H228.659ZM225.893 23.1168C225.893 20.3815 224.089 18.4549 221.719 18.4549C219.348 18.4549 217.667 20.3815 217.667 23.1168C217.667 25.852 219.37 27.7763 221.719 27.7763C224.067 27.7763 225.893 25.8707 225.893 23.1168Z" fill="white"/>
<path d="M234.884 11.2897C234.884 12.3585 234.119 13.139 233.056 13.139C232.821 13.1479 232.587 13.1065 232.367 13.0174C232.148 12.9282 231.948 12.7932 231.779 12.6204C231.611 12.4476 231.477 12.2406 231.387 12.0119C231.296 11.7832 231.25 11.5376 231.252 11.2897C231.252 10.2491 232.044 9.49438 233.056 9.49438C234.119 9.49438 234.884 10.2491 234.884 11.2897ZM231.673 15.9516H234.466V30.2723H231.673V15.9516Z" fill="white"/>
<path d="M36.3302 19.8097C43.2076 24.5711 35.5171 35.7038 28.3347 27.0068C16.4961 11.4284 5.06134 14.4998 1.96075 18.8183C0.220729 21.2426 -3.12921 29.1696 6.93823 34.1424C5.77821 26.5396 10.9563 24.0254 13.2803 23.3325C17.4976 22.074 21.8056 23.8354 24.4983 25.6182C27.191 27.4011 30.4691 30.6282 32.1021 31.8653C33.5453 32.9567 36.0808 34.1781 38.1515 34.1353C41.1179 34.0724 43.6371 32.1781 44.3256 29.6239C45.3541 25.8096 41.8185 19.2512 36.3302 19.7969" fill="white"/>
<path d="M22.1593 0C27.9241 2.73568 30.0734 5.94279 30.1655 11.0184C30.2306 14.7527 31.2727 16.6855 32.1021 17.9398C17.503 15.107 17.6588 3.21996 22.1593 0Z" fill="white"/>
</svg>
